HIERARCHY
ROOT Hips
{
	OFFSET	0.00	0.00	0.00
	CHANNELS 6 Xposition Yposition Zposition Zrotation Xrotation Yrotation
	JOINT LeftUpLeg
	{
		OFFSET	 0.126116	-0.014019	-0.065224
		CHANNELS 3 Zrotation Xrotation Yrotation
		JOINT LeftLeg
		{
			OFFSET	 0.000000	 0.000000	 0.569914
			CHANNELS 3 Zrotation Xrotation Yrotation
			JOINT LeftFoot
			{
				OFFSET	 0.000000	 0.000000	 0.544423
				CHANNELS 3 Zrotation Xrotation Yrotation
				JOINT LeftToeBase
				{
					OFFSET	 0.000000	 0.000000	 0.207117
					CHANNELS 3 Zrotation Xrotation Yrotation
					End Site
					{
						OFFSET	 0.000000	 0.000000	 0.207117
					}
				}
			}
		}
	}
	JOINT RightUpLeg
	{
		OFFSET	-0.124023	-0.008373	-0.065224
		CHANNELS 3 Zrotation Xrotation Yrotation
		JOINT RightLeg
		{
			OFFSET	 0.000000	 0.000000	 0.570047
			CHANNELS 3 Zrotation Xrotation Yrotation
			JOINT RightFoot
			{
				OFFSET	 0.000000	 0.000000	 0.544354
				CHANNELS 3 Zrotation Xrotation Yrotation
				JOINT RightToeBase
				{
					OFFSET	 0.000000	 0.000000	 0.207540
					CHANNELS 3 Zrotation Xrotation Yrotation
					End Site
					{
						OFFSET	 0.000000	 0.000000	 0.207540
					}
				}
			}
		}
	}
	JOINT Spine
	{
		OFFSET	 0.000184	-0.007763	 0.117403
		CHANNELS 3 Zrotation Xrotation Yrotation
		JOINT Spine1
		{
			OFFSET	 0.000000	 0.000000	 0.137269
			CHANNELS 3 Zrotation Xrotation Yrotation
			JOINT Spine2
			{
				OFFSET	 0.000000	 0.000000	 0.156879
				CHANNELS 3 Zrotation Xrotation Yrotation
				JOINT LeftShoulder
				{
					OFFSET	 0.080501	-0.002496	 0.160144
					CHANNELS 3 Zrotation Xrotation Yrotation
					JOINT LeftArm
					{
						OFFSET	 0.000000	 0.000000	 0.164363
						CHANNELS 3 Zrotation Xrotation Yrotation
						JOINT LeftForeArm
						{
							OFFSET	 0.000000	 0.000000	 0.364576
							CHANNELS 3 Zrotation Xrotation Yrotation
							JOINT LeftHand
							{
								OFFSET	 0.000000	 0.000000	 0.360812
								CHANNELS 3 Zrotation Xrotation Yrotation
								JOINT LeftHandIndex1
								{
									OFFSET	 0.000000	 0.000000	 0.086006
									CHANNELS 3 Zrotation Xrotation Yrotation
									JOINT LeftHandIndex2
									{
										OFFSET	 0.000000	 0.000000	 0.047236
										CHANNELS 3 Zrotation Xrotation Yrotation
										JOINT LeftHandIndex3
										{
											OFFSET	-0.004284	-0.000551	 0.038166
											CHANNELS 3 Zrotation Xrotation Yrotation
											End Site
											{
												OFFSET	-0.004284	-0.000551	 0.038166
											}
										}
									}
								}
							}
						}
					}
				}
				JOINT Neck
				{
					OFFSET	 0.000000	 0.000000	 0.176489
					CHANNELS 3 Zrotation Xrotation Yrotation
					JOINT Head
					{
						OFFSET	 0.000000	-0.001747	 0.077940
						CHANNELS 3 Zrotation Xrotation Yrotation
						End Site
						{
							OFFSET	 0.000000	-0.001747	 0.077940
						}
					}
				}
				JOINT RightShoulder
				{
					OFFSET	-0.080363	 0.000306	 0.159706
					CHANNELS 3 Zrotation Xrotation Yrotation
					JOINT RightArm
					{
						OFFSET	 0.000000	 0.000000	 0.164196
						CHANNELS 3 Zrotation Xrotation Yrotation
						JOINT RightForeArm
						{
							OFFSET	 0.000000	 0.000000	 0.365611
							CHANNELS 3 Zrotation Xrotation Yrotation
							JOINT RightHand
							{
								OFFSET	 0.000000	 0.000000	 0.360648
								CHANNELS 3 Zrotation Xrotation Yrotation
								JOINT RightHandIndex1
								{
									OFFSET	 0.000000	 0.000000	 0.069977
									CHANNELS 3 Zrotation Xrotation Yrotation
									JOINT RightHandIndex2
									{
										OFFSET	 0.000000	 0.000000	 0.052305
										CHANNELS 3 Zrotation Xrotation Yrotation
										JOINT RightHandIndex3
										{
											OFFSET	 0.009002	-0.000782	 0.042196
											CHANNELS 3 Zrotation Xrotation Yrotation
											End Site
											{
												OFFSET	 0.009002	-0.000782	 0.042196
											}
										}
									}
								}
							}
						}
					}
				}
			}
		}
	}
}
MOTION
Frames:    8
Frame Time: 0.03333334
-0.041495	-2.625313	 1.100815	-5.380032	 8.044940	 1.734431	 4.534179	-22.134310	 174.168400	-1.679488	-40.185470	-0.215077	 0.130247	 84.690090	-0.621678	-2.385751	 28.470230	-0.000379	-2.467364	-23.021130	-178.759800	-0.118949	-41.035600	 0.012023	-0.281214	 85.605950	 0.539769	 2.407692	 17.448090	-0.223325	-8.022988	 8.917936	 0.110360	-12.681050	 6.750322	-1.956741	-14.852840	 3.958636	-0.472556	-115.680500	 89.397690	-153.541000	 56.034580	 59.793880	-78.137470	-3.651157	-4.358527	-20.913040	 6.467190	-2.197006	-5.337209	-3.812334	 37.924440	-2.927599	-2.450526	 36.184240	 0.754587	-1.378229	 35.397820	-2.634230	 0.456120	 2.624137	-0.626563	-3.254092	 6.700109	 0.572814	 94.719130	 86.904720	 171.575800	-53.471130	 70.148340	 71.757940	-3.209301	-12.979640	 25.878370	-24.004120	-3.186996	 9.584263	 6.437017	 35.671460	-0.771858	 2.830251	 35.756010	-7.813440	-2.350882	 35.473990	 5.254307
-0.040770	-2.624179	 1.099078	-5.411718	 8.040107	 1.815691	 4.501245	-22.539230	 174.090700	-1.751362	-40.864860	-0.297613	 0.099371	 84.906880	-0.671350	-2.385392	 28.551770	-0.002139	-2.438109	-23.368740	-178.767700	-0.077081	-41.576550	 0.070505	-0.539244	 85.789130	 0.864682	 2.407674	 17.820400	-0.216049	-8.081307	 9.224332	 0.068027	-12.654410	 6.971631	-1.970390	-14.841430	 4.195559	-0.441280	-115.412400	 89.383570	-153.773700	 55.673430	 58.932940	-77.782850	-3.666054	-4.124553	-21.487410	 5.613120	-2.191250	-5.343046	-3.812334	 37.924440	-2.927599	-2.450526	 36.184240	 0.754587	-1.378229	 35.397820	-2.634230	 0.439452	 2.458710	-0.582634	-3.251293	 6.769255	 0.483849	 94.725780	 86.889510	 171.541300	-53.242850	 69.516430	 71.867670	-3.240482	-12.967750	 26.314580	-23.633320	-3.185995	 9.586110	 6.437017	 35.671460	-0.771858	 2.830251	 35.756010	-7.813440	-2.350882	 35.473990	 5.254307
-0.039188	-2.621163	 1.095288	-5.522769	 8.068552	 1.844989	 4.578794	-23.473720	 174.027800	-1.855421	-42.161350	-0.343641	 0.418746	 85.287070	-1.016698	-2.385024	 28.633380	-0.003904	-2.407743	-24.142350	-178.680900	-0.053315	-42.718380	 0.138813	-0.983154	 86.102330	 1.373438	 2.407572	 18.262160	-0.207386	-8.181634	 9.771346	 0.088735	-12.540810	 7.252285	-1.965516	-14.764510	 4.496486	-0.399901	-114.368100	 89.333530	-154.712200	 54.706180	 57.734210	-77.205410	-3.341305	-4.049245	-22.621110	 5.027518	-2.168676	-5.351026	-3.812334	 37.924440	-2.927599	-2.450526	 36.184240	 0.754587	-1.378229	 35.397820	-2.634230	 0.401603	 2.079430	-0.557064	-3.260661	 6.914759	 0.452998	 94.769660	 86.868000	 171.433400	-52.461110	 68.372730	 71.754130	-3.309767	-13.113020	 27.370630	-23.098530	-3.195320	 9.576268	 6.437017	 35.671460	-0.771858	 2.830251	 35.756010	-7.813440	-2.350882	 35.473990	 5.254307
-0.037303	-2.616049	 1.089689	-5.688264	 8.205505	 1.848859	 4.741951	-24.728170	 173.993700	-2.013386	-43.953110	-0.380979	 0.797971	 85.790720	-1.396806	-2.384434	 28.762560	-0.006711	-2.366144	-25.513230	-178.563300	-0.111283	-44.408950	 0.171489	-1.555839	 86.510300	 1.956023	 2.407285	 18.970310	-0.193468	-8.352039	 10.473700	 0.142459	-12.353570	 7.437682	-1.960869	-14.566490	 4.705991	-0.367632	-113.029300	 89.262720	-155.917300	 53.245610	 56.715460	-76.756320	-3.101913	-4.220987	-24.375830	 4.911481	-2.140152	-5.357799	-3.812334	 37.924440	-2.927599	-2.450526	 36.184240	 0.754587	-1.378229	 35.397820	-2.634230	 0.377004	 1.591594	-0.549744	-3.225322	 6.989834	 0.568014	 94.835150	 86.815800	 171.238300	-51.321620	 67.046290	 71.842080	-3.199314	-13.406410	 28.848330	-22.575780	-3.188333	 9.585441	 6.437017	 35.671460	-0.771858	 2.830251	 35.756010	-7.813440	-2.350882	 35.473990	 5.254307
-0.035269	-2.609154	 1.083283	-5.886833	 8.504574	 1.729225	 4.778821	-26.383940	 174.067700	-2.256411	-46.001130	-0.551780	 0.937309	 86.361960	-1.655786	-2.383488	 28.967600	-0.011163	-2.247781	-27.265830	-178.469000	-0.150807	-46.412210	 0.267635	-1.900886	 86.971600	 2.358525	 2.406635	 19.884530	-0.175395	-8.542879	 11.261580	 0.293369	-12.098010	 7.480941	-1.927540	-14.249100	 4.763030	-0.352389	-112.227300	 89.191820	-156.538700	 51.668980	 55.871970	-76.408010	-3.566214	-4.238678	-26.603340	 4.354412	-2.115907	-5.364212	-3.812334	 37.924440	-2.927599	-2.450526	 36.184240	 0.754587	-1.378229	 35.397820	-2.634230	 0.402497	 0.975207	-0.585933	-3.123488	 6.962447	 0.771051	 94.887740	 86.718490	 170.989300	-50.012080	 65.876880	 72.180210	-2.782675	-13.731370	 30.394540	-22.123370	-3.195978	 9.577924	 6.437017	 35.671460	-0.771858	 2.830251	 35.756010	-7.813440	-2.350882	 35.473990	 5.254307
-0.032858	-2.598725	 1.074376	-6.193917	 8.948816	 1.680613	 4.798248	-28.868460	 174.023100	-2.640880	-48.898040	-0.858485	 1.314153	 87.175270	-2.233290	-2.381956	 29.290350	-0.018207	-2.108615	-29.747910	-178.386800	-0.058483	-49.303550	 0.495902	-2.656652	 87.627430	 3.263243	 2.405559	 20.884950	-0.155484	-8.730906	 12.494660	 0.452952	-11.656200	 7.385906	-1.953954	-13.738380	 4.614235	-0.357610	-112.033000	 89.110660	-156.436700	 49.635220	 55.008330	-75.986210	-4.151822	-4.337806	-29.522380	 3.909826	-2.115195	-5.365162	-3.812334	 37.924440	-2.927599	-2.450526	 36.184240	 0.754587	-1.378229	 35.397820	-2.634230	 0.486806	 0.099078	-0.688911	-2.957334	 6.663430	 1.136742	 94.872560	 86.531520	 170.703000	-48.047860	 64.515630	 72.325140	-2.132966	-14.100280	 32.318600	-21.576690	-3.188858	 9.586531	 6.437017	 35.671460	-0.771858	 2.830251	 35.756010	-7.813440	-2.350882	 35.473990	 5.254307
-0.030468	-2.584297	 1.062108	-6.588831	 9.552060	 1.784722	 4.718660	-32.364700	 173.701000	-3.228841	-52.915580	-1.421119	 3.699550	 88.304880	-4.948018	-2.379878	 29.712510	-0.027471	-2.029018	-33.262480	-178.344700	 0.133613	-53.236290	 0.793321	-6.085285	 88.546530	 6.852004	 2.403713	 22.118260	-0.130721	-8.925610	 14.141010	 0.600605	-11.004730	 7.240656	-2.087351	-13.010620	 4.250164	-0.380105	-112.504500	 89.038970	-155.598600	 47.163620	 54.432510	-75.313390	-5.559169	-4.156031	-32.763290	 2.988831	-2.117349	-5.366372	-3.812334	 37.924440	-2.927599	-2.450526	 36.184240	 0.754587	-1.378229	 35.397820	-2.634230	 0.620661	-0.911214	-0.854704	-2.704754	 5.939507	 1.567506	 94.724110	 86.265400	 170.516300	-45.219600	 62.944780	 71.754900	-1.347217	-14.427160	 34.529030	-20.893460	-3.199055	 9.577727	 6.437017	 35.671460	-0.771858	 2.830251	 35.756010	-7.813440	-2.350882	 35.473990	 5.254307
-0.027111	-2.564553	 1.043446	-7.128691	 10.783640	 1.951335	 4.339742	-37.741990	 173.165800	-4.602323	-58.693540	-2.880661	 46.511880	 89.832150	-48.439700	-2.377229	 30.226440	-0.038813	-1.938618	-38.761490	-178.325600	 0.402184	-58.739030	 1.204463	-79.435200	 89.846770	 80.335690	 2.401229	 23.372390	-0.105269	-9.182726	 16.057700	 0.700673	-10.063580	 6.958604	-2.249472	-11.950130	 3.675381	-0.409131	-113.589100	 88.981630	-154.083800	 44.786420	 54.652070	-74.091080	-7.886017	-3.549247	-35.954410	 1.524481	-2.105003	-5.370222	-3.812334	 37.924440	-2.927599	-2.450526	 36.184240	 0.754587	-1.378229	 35.397820	-2.634230	 0.837303	-2.243023	-1.173327	-2.354933	 5.013498	 2.324293	 94.468750	 85.931530	 170.419100	-42.286790	 62.287360	 70.416240	-0.132248	-14.677700	 36.388340	-20.370990	-3.190376	 9.587093	 6.437017	 35.671460	-0.771858	 2.830251	 35.756010	-7.813440	-2.350882	 35.473990	 5.254307
